<?xml version="1.0"?>
<mxfile host="Electron" modified="2022-05-11T15:06:43.468Z" agent="5.0 (X11; Linux x86_64) AppleWebKit/537.36 (KHTML, like Gecko) draw.io/15.7.3 Chrome/91.0.4472.164 Electron/13.6.1 Safari/537.36" etag="51prIrHHCTRaMpMbjnW_" version="15.7.3" type="device">
  <diagram id="z5VwzeGngOqF_WvotEdR" name="Page-1">
    <mxGraphModel dx="2" dy="1" grid="1" gridSize="10" guides="1" tooltips="1" connect="1" arrows="1" fold="1" page="1" pageScale="1" pageWidth="850" pageHeight="1100" math="0" shadow="0">
      <root>
        <mxCell id="0"/>
        <mxCell id="1" parent="0"/>
        <mxCell id="YkckIPpV0cWsv0fzoz1E-1" value="Host&lt;br&gt;ISA" style="rounded=0;whiteSpace=wrap;html=1;" parent="1" vertex="1">
          <mxGeometry x="80" y="210" width="60" height="40" as="geometry"/>
        </mxCell>
        <mxCell id="YkckIPpV0cWsv0fzoz1E-2" value="BT ISA&lt;br&gt;for ARM" style="rounded=0;whiteSpace=wrap;html=1;" parent="1" vertex="1">
          <mxGeometry x="140" y="210" width="60" height="40" as="geometry"/>
        </mxCell>
        <mxCell id="YkckIPpV0cWsv0fzoz1E-3" value="Kernel (Shedule: ensure payload balance)" style="rounded=0;whiteSpace=wrap;html=1;" parent="1" vertex="1">
          <mxGeometry x="80" y="170" width="240" height="30" as="geometry"/>
        </mxCell>
        <mxCell id="YkckIPpV0cWsv0fzoz1E-4" value="BT ISA&lt;br&gt;for x86" style="rounded=0;whiteSpace=wrap;html=1;" parent="1" vertex="1">
          <mxGeometry x="200" y="210" width="60" height="40" as="geometry"/>
        </mxCell>
        <mxCell id="YkckIPpV0cWsv0fzoz1E-5" value="BT ISA&lt;br&gt;for ..." style="rounded=0;whiteSpace=wrap;html=1;" parent="1" vertex="1">
          <mxGeometry x="260" y="210" width="60" height="40" as="geometry"/>
        </mxCell>
        <mxCell id="YkckIPpV0cWsv0fzoz1E-7" value="Host&lt;br&gt;Apps" style="rounded=0;whiteSpace=wrap;html=1;" parent="1" vertex="1">
          <mxGeometry x="80" y="70" width="60" height="40" as="geometry"/>
        </mxCell>
        <mxCell id="YkckIPpV0cWsv0fzoz1E-8" value="ARM&lt;br&gt;Apps" style="rounded=0;whiteSpace=wrap;html=1;" parent="1" vertex="1">
          <mxGeometry x="140" y="70" width="60" height="40" as="geometry"/>
        </mxCell>
        <mxCell id="YkckIPpV0cWsv0fzoz1E-9" value="x86&lt;br&gt;Apps" style="rounded=0;whiteSpace=wrap;html=1;" parent="1" vertex="1">
          <mxGeometry x="200" y="70" width="60" height="40" as="geometry"/>
        </mxCell>
        <mxCell id="YkckIPpV0cWsv0fzoz1E-10" value="...&lt;br&gt;Apps" style="rounded=0;whiteSpace=wrap;html=1;" parent="1" vertex="1">
          <mxGeometry x="260" y="70" width="60" height="40" as="geometry"/>
        </mxCell>
        <mxCell id="YkckIPpV0cWsv0fzoz1E-12" value="" style="endArrow=classic;html=1;fontSize=12;curved=1;exitX=0.5;exitY=0;exitDx=0;exitDy=0;entryX=0.5;entryY=0;entryDx=0;entryDy=0;startArrow=classic;startFill=1;" parent="1" source="YkckIPpV0cWsv0fzoz1E-10" target="YkckIPpV0cWsv0fzoz1E-7" edge="1">
          <mxGeometry width="50" height="50" relative="1" as="geometry">
            <mxPoint x="20" y="90" as="sourcePoint"/>
            <mxPoint x="70" y="40" as="targetPoint"/>
            <Array as="points">
              <mxPoint x="260" y="40"/>
              <mxPoint x="140" y="40"/>
            </Array>
          </mxGeometry>
        </mxCell>
        <mxCell id="YkckIPpV0cWsv0fzoz1E-13" value="" style="endArrow=classic;html=1;fontSize=12;curved=1;startArrow=classic;startFill=1;exitX=0.5;exitY=0;exitDx=0;exitDy=0;entryX=0.5;entryY=0;entryDx=0;entryDy=0;" parent="1" source="YkckIPpV0cWsv0fzoz1E-9" target="YkckIPpV0cWsv0fzoz1E-7" edge="1">
          <mxGeometry width="50" height="50" relative="1" as="geometry">
            <mxPoint x="230" y="130" as="sourcePoint"/>
            <mxPoint x="110" y="110" as="targetPoint"/>
            <Array as="points">
              <mxPoint x="200" y="50"/>
              <mxPoint x="140" y="50"/>
            </Array>
          </mxGeometry>
        </mxCell>
        <mxCell id="YkckIPpV0cWsv0fzoz1E-14" value="" style="endArrow=classic;html=1;fontSize=12;curved=1;exitX=0.5;exitY=0;exitDx=0;exitDy=0;entryX=0.5;entryY=0;entryDx=0;entryDy=0;startArrow=classic;startFill=1;" parent="1" source="YkckIPpV0cWsv0fzoz1E-8" target="YkckIPpV0cWsv0fzoz1E-7" edge="1">
          <mxGeometry width="50" height="50" relative="1" as="geometry">
            <mxPoint x="240" y="80" as="sourcePoint"/>
            <mxPoint x="120" y="80" as="targetPoint"/>
            <Array as="points">
              <mxPoint x="140" y="50"/>
            </Array>
          </mxGeometry>
        </mxCell>
        <mxCell id="YkckIPpV0cWsv0fzoz1E-16" value="payload balance" style="whiteSpace=wrap;html=1;fontSize=12;strokeColor=none;fillOpacity=80;fillColor=#f5f5f5;fontColor=#333333;" parent="1" vertex="1">
          <mxGeometry x="150" y="40" width="100" height="20" as="geometry"/>
        </mxCell>
        <mxCell id="YkckIPpV0cWsv0fzoz1E-17" value="General&lt;br&gt;BT" style="rounded=0;whiteSpace=wrap;html=1;" parent="1" vertex="1">
          <mxGeometry x="80" y="120" width="60" height="40" as="geometry"/>
        </mxCell>
        <mxCell id="YkckIPpV0cWsv0fzoz1E-18" value="ARM&lt;br&gt;BT" style="rounded=0;whiteSpace=wrap;html=1;" parent="1" vertex="1">
          <mxGeometry x="140" y="120" width="60" height="40" as="geometry"/>
        </mxCell>
        <mxCell id="YkckIPpV0cWsv0fzoz1E-19" value="x86&lt;br&gt;BT" style="rounded=0;whiteSpace=wrap;html=1;" parent="1" vertex="1">
          <mxGeometry x="200" y="120" width="60" height="40" as="geometry"/>
        </mxCell>
        <mxCell id="YkckIPpV0cWsv0fzoz1E-20" value="...&lt;br&gt;BT" style="rounded=0;whiteSpace=wrap;html=1;" parent="1" vertex="1">
          <mxGeometry x="260" y="120" width="60" height="40" as="geometry"/>
        </mxCell>
        <mxCell id="YkckIPpV0cWsv0fzoz1E-21" value="Guest ISAs" style="endArrow=none;html=1;fontSize=12;rounded=1;" parent="1" edge="1">
          <mxGeometry width="50" height="50" relative="1" as="geometry">
            <mxPoint x="140" y="255" as="sourcePoint"/>
            <mxPoint x="320" y="255" as="targetPoint"/>
            <Array as="points">
              <mxPoint x="140" y="265"/>
              <mxPoint x="320" y="265"/>
            </Array>
          </mxGeometry>
        </mxCell>
      </root>
    </mxGraphModel>
  </diagram>
</mxfile>
